<?xml version="1.0" encoding="utf-8"?>
<!-- Generator: Adobe Illustrator 28.2.0, SVG Export Plug-In . SVG Version: 6.00 Build 0)  -->
<svg version="1.1" id="Layer_1" xmlns="http://www.w3.org/2000/svg" xmlns:xlink="http://www.w3.org/1999/xlink" x="0px" y="0px"
	 viewBox="0 0 356.7 377.2" style="enable-background:new 0 0 356.7 377.2;" xml:space="preserve">
<style type="text/css">
	.st0{fill:#1E1E1E;}
</style>
<g>
	<g>
		<g>
			<path class="st0" d="M230.3,283c-2.1,0.5-2.7,2.2-3.6,3.5c-6.9,9.7-14.5,17.8-23,24.4c9.9-15,11.9-31.6,6.6-49.3
				c-4.4-14.8-15.3-24.3-27.7-32.5c-15.1-10-32.1-16.4-48.3-24.1c-12.4-6-24.9-11.9-34.6-22C83,165.6,86,138.6,106,126.3
				c5.9-3.6,12.1-5.9,18.6-7.1c6.7-0.8,13.6-0.9,20.9-0.4c23.9,1.7,45.4,11.1,64.8,25.1c1.5,1.1,2.9,2.8,5.1,2.2
				c2.4-3.4,3.6-7.3,3.6-12.4c-0.2-0.2-0.7-0.5-1.3-0.9c-1-0.6-1.9-1.3-2.9-1.8c-22.3-12.1-45.7-20.1-71.3-20.2c-2.6,0-5.3,0-8,0.2
				c-1.8,0.1-3.5,0.3-5.2,0.5c-29.8,3-54.6,16.3-74.4,39.6c-20.1,23.6-28.3,51.5-26.6,82.2c6.8,121.6,155.1,137,202,55.4
				C232.6,286.5,233.9,284.1,230.3,283z M41.5,233.8c-2.8-26.8,2.4-51.7,17.7-74c9.3-13.4,20.2-23.6,32.8-30.5
				c-11.7,12.5-15.7,30.5-9.9,46.6c4.4,12.1,13.5,20.3,23.8,27.1c11.5,7.6,24.2,13,36.7,18.8c15.3,7.1,30.8,13.8,44,24.7
				c16.6,13.7,21.9,35,13.7,54.8c-9.9,23.8-44.1,29.5-58.8,29.5c-27.7-0.2-50.7-11.3-69.6-30.8C54.1,281.8,44.2,259.4,41.5,233.8z"
				/>
		</g>
		<g>
			<path class="st0" d="M220.3,169.6l3.6,22.2c0.1,0.4,0.3,0.7,0.7,0.7l22.2,3.6c1,0.2,1,1.6,0,1.7l-22.2,3.6
				c-0.4,0.1-0.7,0.3-0.7,0.7l-3.6,22.2c-0.2,1-1.6,1-1.7,0l-3.6-22.2c-0.1-0.4-0.3-0.7-0.7-0.7l-22.2-3.6c-1-0.2-1-1.6,0-1.7
				l22.2-3.6c0.4-0.1,0.7-0.3,0.7-0.7l3.6-22.2C218.8,168.6,220.2,168.6,220.3,169.6z"/>
		</g>
	</g>
	<g>
		<path class="st0" d="M27.1,43.8c-2.2,0.4-4.7,1-7.5,1.8c-2.8,0.9-4.9,1.4-6.4,1.6c-1.4,0.2-2.7,0.1-4-0.3
			c-1.2-0.3-2.2-1.2-3.1-2.7c-1-1.7-1.2-3.4-0.5-5.1c0.7-1.8,2-3.3,4-4.4c2.4-1.4,4.8-1.9,7.4-1.5c2.5,0.4,5,1.8,7.4,3.9
			c0.3,0.3,0.8,0.3,1.2,0.1l1.8-1.2c0.5-0.3,0.6-0.9,0.3-1.4l-6.5-9.9c-0.3-0.4-0.9-0.6-1.3-0.3l-2,1.1c-0.4,0.2-0.6,0.8-0.4,1.2
			l0.7,1.6c-3.7-0.4-7.4,0.4-10.9,2.5c-3.1,1.8-5.3,4.3-6.5,7.3c-1.2,3.1-0.9,6.3,1,9.4c2.5,4.3,6.3,6.2,11.2,5.5
			c2.1-0.3,4.5-0.9,7.4-1.7c2.8-0.8,4.9-1.3,6.4-1.5c1.4-0.2,2.7-0.1,3.9,0.3c1.2,0.3,2.2,1.2,3.1,2.7c1.2,2,1.5,3.9,0.8,5.8
			c-0.7,1.9-2.2,3.5-4.6,4.9c-5.2,3-10.3,2.2-15.6-2.5C14,61,13.5,61,13.2,61.2l-1.9,1.3c-0.2,0.2-0.4,0.4-0.4,0.6
			c0,0.3,0,0.5,0.2,0.7l7.2,9.9c0.2,0.3,0.5,0.4,0.8,0.4c0.2,0,0.3,0,0.5-0.1l2-1.2c0.4-0.3,0.6-0.8,0.4-1.3l-0.6-1.2
			c3.6,0.2,7.2-0.7,10.6-2.7c3.8-2.2,6.3-5,7.6-8.3c1.3-3.4,1-6.8-1-10.2C36,44.9,32.1,43,27.1,43.8z"/>
		<path class="st0" d="M102,0.7c-0.2-0.5-0.6-0.8-1.1-0.7L68.8,5.7c-0.5,0.1-0.8,0.5-0.8,1l0.5,11.7c0,0.3,0.1,0.5,0.3,0.7
			c0.2,0.2,0.5,0.3,0.7,0.2l2.3-0.1c0.5,0,0.9-0.4,0.9-0.9c0.3-3,0.6-5.1,0.9-6.3c0.3-1.2,0.8-2,1.4-2.5c0.7-0.6,1.8-1,3.5-1.3
			l4.2-0.7L88.2,38c0.4,2,0.1,2.6,0.1,2.7c0,0.1-0.4,0.6-2.2,1.1l-2.9,0.9c-0.5,0.1-0.8,0.6-0.7,1.1l0.4,2c0,0.3,0.2,0.5,0.4,0.6
			c0.2,0.1,0.4,0.2,0.6,0.2c0.1,0,0.1,0,0.2,0l16.9-3c0.5-0.1,0.9-0.6,0.8-1.1l-0.3-2.1c-0.1-0.5-0.5-0.9-1-0.8l-3.2,0.2
			c-1.8,0.1-2.2-0.2-2.3-0.3c-0.1-0.1-0.5-0.6-0.9-2.6L88.6,6.5l3.9-0.7c1.6-0.3,2.9-0.3,3.8,0c0.8,0.3,1.5,0.9,2.2,1.9
			c0.7,1,1.7,2.9,3,5.6c0.2,0.4,0.7,0.6,1.2,0.5l2.2-0.6c0.3-0.1,0.5-0.2,0.6-0.5c0.1-0.2,0.1-0.5,0.1-0.8L102,0.7z"/>
		<path class="st0" d="M181.1,45.2l-2-0.8c0,0,0,0,0,0c-0.9-0.3-1.5-1.1-1.9-2.3c0-0.1-0.1-0.6-0.7-3.7l-5.9-34.9
			c-0.1-0.4-0.4-0.7-0.8-0.8l-3.1-0.6c-0.4-0.1-0.8,0.1-1,0.4l-18.6,29.7c-1.7,2.8-2.7,3.9-3.2,4.3c-0.7,0.5-1.7,0.9-3,0.9l-1.9,0.1
			c-0.5,0-0.8,0.4-0.9,0.8l-0.4,2c-0.1,0.5,0.3,1,0.8,1.1l14.6,2.7c0.3,0,0.5,0,0.7-0.2c0.2-0.1,0.4-0.4,0.4-0.6l0.4-2
			c0.1-0.5-0.2-0.9-0.6-1.1l-2.4-0.9c-1.2-0.5-1.6-0.9-1.8-1c-0.1-0.1-0.2-0.2-0.1-0.8c0.1-0.6,0.6-1.9,2.5-5l1.8-2.9l15.5,2.8
			l0.7,4.5c0.5,3,0.5,4.2,0.4,4.8c-0.1,0.3-0.2,0.9-1.8,0.7l-2.9-0.2c-0.5,0-0.9,0.3-1,0.8l-0.3,2.1c-0.1,0.5,0.3,1,0.8,1.1
			l14.8,2.7c0.1,0,0.1,0,0.2,0c0.2,0,0.4-0.1,0.6-0.2c0.2-0.1,0.4-0.4,0.4-0.6l0.4-2C181.8,45.9,181.6,45.4,181.1,45.2z M168.7,27.8
			l-12.2-2.2l9.3-15.2L168.7,27.8z"/>
		<path class="st0" d="M263.4,44.1l-11.7-7.3c-0.5-0.3-1-0.1-1.3,0.3l-1.1,1.7c-0.3,0.4-0.2,0.9,0.2,1.3l1.6,1.5
			c0.6,0.6,1.1,1.3,0.9,1.6c-0.2,0.3-1,1.1-3.7,2.4l-12.4,6l0-15.4c0-2.6,0.3-3.2,0.3-3.3c0.1,0,0.5,0.1,1.6,0.5l1.8,0.6
			c0.4,0.1,0.9,0,1.1-0.4l1.1-1.8c0.3-0.5,0.1-1.1-0.3-1.4l-12-7.4c-0.5-0.3-1-0.1-1.3,0.3l-1.1,1.7c-0.3,0.4-0.2,0.9,0.1,1.2
			l1.2,1.2c0.7,0.7,1.2,1.4,1.4,2.2c0.2,1,0.4,2.6,0.4,4.7l0.1,19.4l-4.8,7.8c-1.1,1.8-1.7,2.1-1.8,2.1c-0.1,0-0.7,0.2-2.4-0.6
			l-2.8-1.3c-0.5-0.2-1,0-1.2,0.4l-1.1,1.8c-0.3,0.5-0.1,1.1,0.3,1.4l14.6,9c0.2,0.1,0.3,0.1,0.5,0.1c0.3,0,0.6-0.2,0.8-0.4l1.1-1.7
			c0.3-0.4,0.2-1-0.2-1.3l-2.5-2c-1.4-1.1-1.5-1.6-1.5-1.7c0-0.2,0-0.8,1.1-2.6l4.9-7.9l15.3-7.3c4.1-1.9,5.6-2.5,6.3-2.6
			c0.8-0.2,1.9-0.1,3.2,0.2l1.6,0.5c0.4,0.1,0.9-0.1,1.1-0.4l1.1-1.8C264,45,263.9,44.4,263.4,44.1z"/>
		<path class="st0" d="M306.4,166.5c2.9,1.3,6,2,9.2,2c0.8,0,1.7,0,2.6-0.1c0.5-0.1,0.9-0.5,0.9-1l-0.1-2c0-0.5-0.5-1-1-0.9
			c-7.6,0.2-12.5-2.6-15.1-8.5c-1.7-3.9-1.6-7.5,0.2-11.1c1.8-3.6,5.3-6.6,10.3-8.7c4.6-2,9-2.5,13-1.5c3.9,1,6.6,3.2,8.1,6.6
			c2.1,4.9,0.6,9.8-4.8,15c-0.3,0.3-0.4,0.8-0.2,1.2l0.9,1.9c0.2,0.5,0.8,0.7,1.3,0.4l11.2-5.6c0.5-0.2,0.7-0.8,0.5-1.3l-0.9-2
			c-0.2-0.4-0.7-0.7-1.1-0.6l-1.8,0.4c0.9-3.8,0.5-7.5-1.1-11.2c-2-4.8-5.8-8.2-11.4-10.1c-5.5-1.9-11.3-1.6-17.1,1.1
			c-5.7,2.5-9.8,6.3-12.1,11.2c-2.3,5-2.3,10.2,0,15.5C299.9,161.7,302.7,164.9,306.4,166.5z"/>
		<path class="st0" d="M356.3,228.4c0-0.3-0.1-0.5-0.3-0.7c-0.2-0.2-0.4-0.3-0.7-0.3l-2.1,0.1c-0.5,0-0.9,0.4-0.9,0.9l-0.4,2.9
			c-0.2,1.3-0.5,1.7-0.6,1.7c-0.1,0.1-0.6,0.4-2.6,0.4l-10.8,0.3l-0.6-19.8l10.8-0.3c2-0.1,2.6,0.2,2.8,0.3c0.3,0.2,0.5,0.7,0.6,1.4
			l0.5,3.1c0.1,0.5,0.5,0.9,1,0.8l2.1-0.1c0.5,0,0.9-0.5,0.9-1l-0.5-15.4c0-0.3-0.1-0.5-0.3-0.7c-0.2-0.2-0.4-0.3-0.7-0.3l-2.1,0.1
			c-0.5,0-0.9,0.4-0.9,0.9l-0.4,2.7c-0.2,1.4-0.5,1.8-0.6,1.8c0,0-0.5,0.4-2.7,0.4l-27.3,0.8c-2.1,0.1-2.6-0.2-2.7-0.3
			c-0.1,0-0.4-0.4-0.7-1.8l-0.5-2.7c-0.1-0.5-0.5-0.8-1-0.8l-2.1,0.1c-0.5,0-1,0.5-1,1l0.5,15.4c0,0.5,0.5,1,1,1l2.1,0c0,0,0,0,0,0
			c0.5,0,0.9-0.4,1-0.9l0.3-3.1c0.1-0.8,0.3-1.3,0.5-1.5c0.2-0.1,0.8-0.4,2.8-0.5l12.1-0.4l0.6,19.8l-12.1,0.4
			c-2.1,0.1-2.6-0.2-2.7-0.3c-0.1,0-0.4-0.4-0.7-1.8l-0.5-2.8c-0.1-0.5-0.5-0.8-1-0.8l-2.1,0.1c-0.5,0-1,0.5-1,1l0.5,15.4
			c0,0.5,0.5,1,1,1l2.1,0h0c0.5,0,0.9-0.4,1-0.9l0.3-2.9c0.1-1.1,0.5-1.5,0.6-1.6c0.1-0.1,0.7-0.4,2.7-0.5l27.3-0.8
			c2-0.1,2.6,0.2,2.7,0.3c0.1,0.1,0.5,0.4,0.7,1.5l0.5,2.9c0.1,0.5,0.5,0.9,1,0.8l2.1-0.1c0.5,0,0.9-0.5,0.9-1L356.3,228.4z"/>
		<path class="st0" d="M347.5,290.2l-2-0.6c-0.5-0.1-1,0.1-1.2,0.5l-1.3,2.6c-0.7,1.3-1.1,1.5-1.2,1.5c-0.1,0-0.6,0.2-2.6-0.5
			l-26.1-8.1c-2-0.6-2.4-1.1-2.4-1.1c0-0.1-0.3-0.5-0.1-1.9l0.4-2.9c0.1-0.5-0.2-0.9-0.7-1.1l-2-0.6c-0.5-0.2-1.1,0.1-1.2,0.6
			l-4.7,15c-0.1,0.2-0.1,0.5,0.1,0.8c0.1,0.2,0.3,0.4,0.6,0.5l2,0.6c0.5,0.1,1-0.1,1.2-0.5l1.3-2.8c0,0,0,0,0,0
			c0.3-0.7,0.7-1.1,1-1.3c0.2-0.1,0.9-0.1,2.8,0.4l26.1,8.1c1.9,0.6,2.4,1,2.5,1.2c0.2,0.3,0.3,0.8,0.1,1.6l-0.6,3.1
			c-0.1,0.5,0.2,1,0.7,1.1l2,0.6c0.1,0,0.2,0,0.3,0c0.4,0,0.8-0.3,0.9-0.7l4.7-15C348.3,290.9,348,290.3,347.5,290.2z"/>
		<path class="st0" d="M306.2,336.6c-5.1-3.6-10.4-5.1-15.8-4.5c-5.5,0.6-9.9,3.3-13.3,7.9c-2.9,4.1-4.2,8.3-3.7,12.3
			c0.5,4.1,2,7.8,4.5,11.1c0.3,0.4,0.9,0.5,1.3,0.2l1.6-1.1c0.4-0.3,0.6-0.9,0.3-1.3c-4.1-6.4-4.3-12.1-0.5-17.3
			c2.5-3.4,5.6-5.3,9.6-5.6c4-0.3,8.3,1.1,12.8,4.3c4.1,2.9,6.8,6.4,7.9,10.4c1.2,3.9,0.7,7.3-1.5,10.3c-3.1,4.3-8.1,5.5-15.3,3.6
			c-0.4-0.1-0.9,0.1-1.1,0.4l-1.1,1.8c-0.3,0.5-0.2,1.1,0.3,1.4l10.5,6.7c0.2,0.1,0.3,0.2,0.5,0.2c0.3,0,0.6-0.1,0.8-0.4l1.3-1.8
			c0.3-0.4,0.2-0.9-0.1-1.3l-1.3-1.3c3.7-1.2,6.7-3.5,9-6.8c3.1-4.2,4-9.2,2.8-15C314.7,344.9,311.4,340.2,306.2,336.6z"/>
	</g>
</g>
</svg>
